# xmcd CD database file
#
# Track frame offsets:
#	150
#	25779
#	47048
#	68833
#	89794
#	114664
#	135108
#	156765
#	181193
#	202261
#	223971
#	243263
#	261154
#	276421
#	299480
#
# Disc length: 4284 seconds
#
# Revision: 1
# Processed by: cddbd v1.5.2PL0 Copyright (c) Steve Scherf et al.
# Submitted via: CDex 1.77
#
DISCID=ea10ba0f
DTITLE=Varios - 30 Salsa Colombianas Pegaditas Disc 1 m2k 95268
DYEAR=2004
DGENRE=Salsa
TTITLE0=Una Aventura-Grupo Niche
TTITLE1=Rebelion-Joe Arroyo
TTITLE2=El Preso-Fruko Y Sus Tesos
TTITLE3=Micaela-La Sonora Carruseles
TTITLE4=Nuestro Sueno-Grupo Niche
TTITLE5=El Centurion De La Noche-Joe Arroyo
TTITLE6=A Mi Dios Todo le Debo-Joe Arroyo
TTITLE7=Un Vestido Bonito-Latin Sounds Orchestra
TTITLE8=La Cita Latin Sounds Orchestra
TTITLE9=A Nuestro Modo-Latin Sounds Orchestra
TTITLE10=Mi Vecina-Latin Sounds Orchestra
TTITLE11=Patacon Pisao-Latin Sounds Orchestra
TTITLE12=Sobre Las Olas-Latin Sounds Orchestra
TTITLE13=Que Te Pasa-Latin Sounds Orchestra
TTITLE14=No Volvere-Latin Sounsd Orchestra
EXTD=YEAR: 2004
EXTT0=
EXTT1=
EXTT2=
EXTT3=
EXTT4=
EXTT5=
EXTT6=
EXTT7=
EXTT8=
EXTT9=
EXTT10=
EXTT11=
EXTT12=
EXTT13=
EXTT14=
PLAYORDER=
